<svg width="30" height="30" viewBox="0 0 31 31" fill="none" xmlns="http://www.w3.org/2000/svg">
<path opacity="0.3" d="M21.9463 2.16016H8.61296C4.93129 2.16016 1.94629 5.14516 1.94629 8.82682V22.1602C1.94629 25.8418 4.93129 28.8268 8.61296 28.8268H21.9463C25.628 28.8268 28.613 25.8418 28.613 22.1602V8.82682C28.613 5.14516 25.628 2.16016 21.9463 2.16016ZM15.2796 22.1602C11.598 22.1602 8.61296 19.1752 8.61296 15.4935C8.61296 11.8118 11.598 8.82682 15.2796 8.82682C18.9613 8.82682 21.9463 11.8118 21.9463 15.4935C21.9463 19.1752 18.9613 22.1602 15.2796 22.1602Z" fill="#F5F5F5"/>
<path d="M21.9465 0.493164H8.61312C4.01812 0.493164 0.279785 4.2315 0.279785 8.8265V22.1598C0.279785 26.7548 4.01812 30.4932 8.61312 30.4932H21.9465C26.5415 30.4932 30.2798 26.7548 30.2798 22.1598V8.8265C30.2798 4.2315 26.5415 0.493164 21.9465 0.493164ZM26.9465 22.1598C26.9465 24.9165 24.7031 27.1598 21.9465 27.1598H8.61312C5.85645 27.1598 3.61312 24.9165 3.61312 22.1598V8.8265C3.61312 6.06983 5.85645 3.8265 8.61312 3.8265H21.9465C24.7031 3.8265 26.9465 6.06983 26.9465 8.8265V22.1598Z" fill="black"/>
<path d="M15.2796 7.15983C10.6846 7.15983 6.94629 10.8982 6.94629 15.4932C6.94629 20.0882 10.6846 23.8265 15.2796 23.8265C19.8746 23.8265 23.613 20.0882 23.613 15.4932C23.613 10.8982 19.8746 7.15983 15.2796 7.15983ZM15.2796 20.4932C12.523 20.4932 10.2796 18.2498 10.2796 15.4932C10.2796 12.7365 12.523 10.4932 15.2796 10.4932C18.0363 10.4932 20.2796 12.7365 20.2796 15.4932C20.2796 18.2498 18.0363 20.4932 15.2796 20.4932ZM23.613 5.49316C23.1709 5.49316 22.747 5.66876 22.4344 5.98132C22.1219 6.29388 21.9463 6.7178 21.9463 7.15983C21.9463 7.60186 22.1219 8.02578 22.4344 8.33834C22.747 8.6509 23.1709 8.8265 23.613 8.8265C24.055 8.8265 24.4789 8.6509 24.7915 8.33834C25.104 8.02578 25.2796 7.60186 25.2796 7.15983C25.2796 6.7178 25.104 6.29388 24.7915 5.98132C24.4789 5.66876 24.055 5.49316 23.613 5.49316Z" fill="black"/>
</svg>
